<svg id="visual" viewBox="0 0 960 540" width="960" height="540" xmlns="http://www.w3.org/2000/svg" xmlns:xlink="http://www.w3.org/1999/xlink" version="1.1"><path d="M0 341L16 334.5C32 328 64 315 96 315.5C128 316 160 330 192 327.7C224 325.3 256 306.7 288 299.5C320 292.3 352 296.7 384 296.8C416 297 448 293 480 301.3C512 309.7 544 330.3 576 330C608 329.7 640 308.3 672 310.2C704 312 736 337 768 335.8C800 334.7 832 307.3 864 299.3C896 291.3 928 302.7 944 308.3L960 314L960 541L944 541C928 541 896 541 864 541C832 541 800 541 768 541C736 541 704 541 672 541C640 541 608 541 576 541C544 541 512 541 480 541C448 541 416 541 384 541C352 541 320 541 288 541C256 541 224 541 192 541C160 541 128 541 96 541C64 541 32 541 16 541L0 541Z" fill="#4facf7"></path><path d="M0 370L16 365.8C32 361.7 64 353.3 96 353.3C128 353.3 160 361.7 192 367.7C224 373.7 256 377.3 288 380.5C320 383.7 352 386.3 384 383.7C416 381 448 373 480 359C512 345 544 325 576 318.2C608 311.3 640 317.7 672 319.2C704 320.7 736 317.3 768 326.2C800 335 832 356 864 366.7C896 377.3 928 377.7 944 377.8L960 378L960 541L944 541C928 541 896 541 864 541C832 541 800 541 768 541C736 541 704 541 672 541C640 541 608 541 576 541C544 541 512 541 480 541C448 541 416 541 384 541C352 541 320 541 288 541C256 541 224 541 192 541C160 541 128 541 96 541C64 541 32 541 16 541L0 541Z" fill="#37a2fb"></path><path d="M0 397L16 400.3C32 403.7 64 410.3 96 410.5C128 410.7 160 404.3 192 398.3C224 392.3 256 386.7 288 380C320 373.3 352 365.7 384 371.3C416 377 448 396 480 394.3C512 392.7 544 370.3 576 367.3C608 364.3 640 380.7 672 384.7C704 388.7 736 380.3 768 375.5C800 370.7 832 369.3 864 366.3C896 363.3 928 358.7 944 356.3L960 354L960 541L944 541C928 541 896 541 864 541C832 541 800 541 768 541C736 541 704 541 672 541C640 541 608 541 576 541C544 541 512 541 480 541C448 541 416 541 384 541C352 541 320 541 288 541C256 541 224 541 192 541C160 541 128 541 96 541C64 541 32 541 16 541L0 541Z" fill="#1e97fd"></path><path d="M0 435L16 425.7C32 416.3 64 397.7 96 394.2C128 390.7 160 402.3 192 401.8C224 401.3 256 388.7 288 385.3C320 382 352 388 384 392.5C416 397 448 400 480 397.5C512 395 544 387 576 382.2C608 377.3 640 375.7 672 383.3C704 391 736 408 768 419C800 430 832 435 864 430.8C896 426.7 928 413.3 944 406.7L960 400L960 541L944 541C928 541 896 541 864 541C832 541 800 541 768 541C736 541 704 541 672 541C640 541 608 541 576 541C544 541 512 541 480 541C448 541 416 541 384 541C352 541 320 541 288 541C256 541 224 541 192 541C160 541 128 541 96 541C64 541 32 541 16 541L0 541Z" fill="#008cff"></path><path d="M0 414L16 413C32 412 64 410 96 410.3C128 410.7 160 413.3 192 422C224 430.7 256 445.3 288 450.2C320 455 352 450 384 441.7C416 433.3 448 421.7 480 419.5C512 417.3 544 424.7 576 433.7C608 442.7 640 453.3 672 459.3C704 465.3 736 466.7 768 462.2C800 457.7 832 447.3 864 442.8C896 438.3 928 439.7 944 440.3L960 441L960 541L944 541C928 541 896 541 864 541C832 541 800 541 768 541C736 541 704 541 672 541C640 541 608 541 576 541C544 541 512 541 480 541C448 541 416 541 384 541C352 541 320 541 288 541C256 541 224 541 192 541C160 541 128 541 96 541C64 541 32 541 16 541L0 541Z" fill="#0080ff"></path><path d="M0 455L16 454.7C32 454.3 64 453.7 96 459.8C128 466 160 479 192 478.8C224 478.7 256 465.3 288 464.5C320 463.7 352 475.3 384 480.3C416 485.3 448 483.7 480 482C512 480.3 544 478.7 576 477C608 475.3 640 473.7 672 469C704 464.3 736 456.7 768 456C800 455.3 832 461.7 864 464.5C896 467.3 928 466.7 944 466.3L960 466L960 541L944 541C928 541 896 541 864 541C832 541 800 541 768 541C736 541 704 541 672 541C640 541 608 541 576 541C544 541 512 541 480 541C448 541 416 541 384 541C352 541 320 541 288 541C256 541 224 541 192 541C160 541 128 541 96 541C64 541 32 541 16 541L0 541Z" fill="#0074ff"></path><path d="M0 492L16 491.5C32 491 64 490 96 491.2C128 492.3 160 495.7 192 496.7C224 497.7 256 496.3 288 494.8C320 493.3 352 491.7 384 493.8C416 496 448 502 480 500.8C512 499.7 544 491.3 576 492C608 492.7 640 502.3 672 503C704 503.7 736 495.3 768 490.8C800 486.3 832 485.7 864 487.8C896 490 928 495 944 497.5L960 500L960 541L944 541C928 541 896 541 864 541C832 541 800 541 768 541C736 541 704 541 672 541C640 541 608 541 576 541C544 541 512 541 480 541C448 541 416 541 384 541C352 541 320 541 288 541C256 541 224 541 192 541C160 541 128 541 96 541C64 541 32 541 16 541L0 541Z" fill="#0066ff"></path></svg>