<svg id="visual" viewBox="0 0 960 540" width="960" height="540" xmlns="http://www.w3.org/2000/svg" xmlns:xlink="http://www.w3.org/1999/xlink" version="1.1"><rect x="0" y="0" width="960" height="540" fill="#001220"></rect><path d="M0 370L22.8 361.3C45.7 352.7 91.3 335.3 137 336.5C182.7 337.7 228.3 357.3 274 366C319.7 374.7 365.3 372.3 411.2 367.5C457 362.7 503 355.3 548.8 351.7C594.7 348 640.3 348 686 348.3C731.7 348.7 777.3 349.3 823 355.7C868.7 362 914.3 374 937.2 380L960 386L960 541L937.2 541C914.3 541 868.7 541 823 541C777.3 541 731.7 541 686 541C640.3 541 594.7 541 548.8 541C503 541 457 541 411.2 541C365.3 541 319.7 541 274 541C228.3 541 182.7 541 137 541C91.3 541 45.7 541 22.8 541L0 541Z" fill="#4141ef"></path><path d="M0 430L22.8 422.7C45.7 415.3 91.3 400.7 137 389C182.7 377.3 228.3 368.7 274 372.2C319.7 375.7 365.3 391.3 411.2 394C457 396.7 503 386.3 548.8 381.5C594.7 376.7 640.3 377.3 686 376.5C731.7 375.7 777.3 373.3 823 369.3C868.7 365.3 914.3 359.7 937.2 356.8L960 354L960 541L937.2 541C914.3 541 868.7 541 823 541C777.3 541 731.7 541 686 541C640.3 541 594.7 541 548.8 541C503 541 457 541 411.2 541C365.3 541 319.7 541 274 541C228.3 541 182.7 541 137 541C91.3 541 45.7 541 22.8 541L0 541Z" fill="#006bf7"></path><path d="M0 460L22.8 457.3C45.7 454.7 91.3 449.3 137 439.3C182.7 429.3 228.3 414.7 274 408.3C319.7 402 365.3 404 411.2 411.5C457 419 503 432 548.8 433C594.7 434 640.3 423 686 417.5C731.7 412 777.3 412 823 418.5C868.7 425 914.3 438 937.2 444.5L960 451L960 541L937.2 541C914.3 541 868.7 541 823 541C777.3 541 731.7 541 686 541C640.3 541 594.7 541 548.8 541C503 541 457 541 411.2 541C365.3 541 319.7 541 274 541C228.3 541 182.7 541 137 541C91.3 541 45.7 541 22.8 541L0 541Z" fill="#008af3"></path><path d="M0 453L22.8 457.5C45.7 462 91.3 471 137 469.2C182.7 467.3 228.3 454.7 274 450.2C319.7 445.7 365.3 449.3 411.2 456.3C457 463.3 503 473.7 548.8 475C594.7 476.3 640.3 468.7 686 467C731.7 465.3 777.3 469.7 823 470.2C868.7 470.7 914.3 467.3 937.2 465.7L960 464L960 541L937.2 541C914.3 541 868.7 541 823 541C777.3 541 731.7 541 686 541C640.3 541 594.7 541 548.8 541C503 541 457 541 411.2 541C365.3 541 319.7 541 274 541C228.3 541 182.7 541 137 541C91.3 541 45.7 541 22.8 541L0 541Z" fill="#00a0e3"></path><path d="M0 481L22.8 482.2C45.7 483.3 91.3 485.7 137 485C182.7 484.3 228.3 480.7 274 481.3C319.7 482 365.3 487 411.2 486.3C457 485.7 503 479.3 548.8 479.8C594.7 480.3 640.3 487.7 686 492C731.7 496.3 777.3 497.7 823 495.7C868.7 493.7 914.3 488.3 937.2 485.7L960 483L960 541L937.2 541C914.3 541 868.7 541 823 541C777.3 541 731.7 541 686 541C640.3 541 594.7 541 548.8 541C503 541 457 541 411.2 541C365.3 541 319.7 541 274 541C228.3 541 182.7 541 137 541C91.3 541 45.7 541 22.8 541L0 541Z" fill="#24aec7"></path></svg>