<svg id="visual" viewBox="0 0 900 600" width="900" height="600" xmlns="http://www.w3.org/2000/svg" xmlns:xlink="http://www.w3.org/1999/xlink" version="1.1"><g transform="translate(463.5776237671659 304.05663391424764)"><path d="M127.8 -151.8C160.5 -124.9 178.2 -79.7 178.8 -37.3C179.4 5.1 162.8 44.7 140.1 78.1C117.5 111.4 88.8 138.4 52.9 156.3C16.9 174.2 -26.4 182.9 -68.7 173.9C-110.9 165 -152 138.2 -177.3 99.8C-202.6 61.3 -212.1 11.1 -202 -33.8C-191.9 -78.6 -162.1 -118.2 -125.2 -144.4C-88.3 -170.5 -44.1 -183.3 1.7 -185.3C47.6 -187.4 95.1 -178.7 127.8 -151.8" fill="#cce1ef"></path></g></svg>