<svg id="visual" viewBox="0 0 900 600" width="900" height="600" xmlns="http://www.w3.org/2000/svg" xmlns:xlink="http://www.w3.org/1999/xlink" version="1.1"><g transform="translate(448.3417750502599 297.3962865549131)"><path d="M108.8 -120.9C145.2 -99 181.9 -68.8 190.5 -31.8C199.2 5.1 179.7 48.8 153.5 83.4C127.3 118 94.4 143.6 57.8 155.6C21.1 167.6 -19.4 166 -62.1 156.6C-104.9 147.1 -149.9 129.8 -171.9 96.8C-193.9 63.7 -193 14.9 -180.4 -27.6C-167.9 -70.1 -143.7 -106.3 -111.7 -129C-79.7 -151.7 -39.9 -160.8 -1.8 -158.6C36.2 -156.4 72.3 -142.9 108.8 -120.9" fill="#cce1ef"></path></g></svg>