<svg id="visual" viewBox="0 0 900 600" width="900" height="600" xmlns="http://www.w3.org/2000/svg" xmlns:xlink="http://www.w3.org/1999/xlink" version="1.1"><g transform="translate(452.94201394402774 297.305250543152)"><path d="M119.4 -145.1C153.6 -113.7 179.2 -74.9 190.2 -30.8C201.2 13.3 197.6 62.6 176.2 103.7C154.9 144.8 115.7 177.7 70.7 193.9C25.7 210.2 -25.3 209.9 -69.4 192.9C-113.5 175.9 -150.7 142.2 -174.4 100.8C-198.2 59.5 -208.4 10.5 -198.2 -32.8C-187.9 -76 -157.2 -113.4 -120.8 -144.5C-84.4 -175.5 -42.2 -200.3 0.2 -200.5C42.6 -200.8 85.3 -176.6 119.4 -145.1" fill="#cce1ef"></path></g></svg>