<?xml version="1.0" standalone="no"?>
<svg viewBox="0 0 200 200" xmlns="http://www.w3.org/2000/svg" >
  <path fill="#F2F4F8" d="M44.7,-70.5C56.3,-62.1,63,-47,70.7,-31.8C78.3,-16.7,86.8,-1.5,87,14.1C87.2,29.6,79.1,45.6,67.7,58.7C56.4,71.8,41.8,82.1,26.4,83.9C11,85.6,-5,78.8,-22.1,74.3C-39.2,69.7,-57.2,67.4,-69.6,57.7C-82,48,-88.8,30.9,-88.4,14.5C-88,-1.9,-80.4,-17.6,-73.4,-33.8C-66.5,-50.1,-60.2,-67,-48.1,-75.3C-36,-83.5,-18,-83.1,-0.7,-82C16.5,-80.9,33.1,-79,44.7,-70.5Z" transform="translate(100 100)" />
</svg>
