<svg id="visual" viewBox="0 0 900 600" width="900" height="600" xmlns="http://www.w3.org/2000/svg" xmlns:xlink="http://www.w3.org/1999/xlink" version="1.1"><path d="M0 55L25 57C50 59 100 63 150 69C200 75 250 83 300 81C350 79 400 67 450 58C500 49 550 43 600 42C650 41 700 45 750 52C800 59 850 69 875 74L900 79L900 0L875 0C850 0 800 0 750 0C700 0 650 0 600 0C550 0 500 0 450 0C400 0 350 0 300 0C250 0 200 0 150 0C100 0 50 0 25 0L0 0Z" fill="#6198ff"></path><path d="M0 67L25 71C50 75 100 83 150 93C200 103 250 115 300 116C350 117 400 107 450 96C500 85 550 73 600 72C650 71 700 81 750 87C800 93 850 95 875 96L900 97L900 77L875 72C850 67 800 57 750 50C700 43 650 39 600 40C550 41 500 47 450 56C400 65 350 77 300 79C250 81 200 73 150 67C100 61 50 57 25 55L0 53Z" fill="#4c8aff"></path><path d="M0 235L25 223C50 211 100 187 150 190C200 193 250 223 300 230C350 237 400 221 450 202C500 183 550 161 600 176C650 191 700 243 750 253C800 263 850 231 875 215L900 199L900 95L875 94C850 93 800 91 750 85C700 79 650 69 600 70C550 71 500 83 450 94C400 105 350 115 300 114C250 113 200 101 150 91C100 81 50 73 25 69L0 65Z" fill="#367cff"></path><path d="M0 313L25 300C50 287 100 261 150 262C200 263 250 291 300 297C350 303 400 287 450 261C500 235 550 199 600 207C650 215 700 267 750 286C800 305 850 291 875 284L900 277L900 197L875 213C850 229 800 261 750 251C700 241 650 189 600 174C550 159 500 181 450 200C400 219 350 235 300 228C250 221 200 191 150 188C100 185 50 209 25 221L0 233Z" fill="#196eff"></path><path d="M0 385L25 397C50 409 100 433 150 431C200 429 250 401 300 394C350 387 400 401 450 396C500 391 550 367 600 363C650 359 700 375 750 391C800 407 850 423 875 431L900 439L900 275L875 282C850 289 800 303 750 284C700 265 650 213 600 205C550 197 500 233 450 259C400 285 350 301 300 295C250 289 200 261 150 260C100 259 50 285 25 298L0 311Z" fill="#0062f5"></path><path d="M0 457L25 466C50 475 100 493 150 494C200 495 250 479 300 469C350 459 400 455 450 446C500 437 550 423 600 422C650 421 700 433 750 451C800 469 850 493 875 505L900 517L900 437L875 429C850 421 800 405 750 389C700 373 650 357 600 361C550 365 500 389 450 394C400 399 350 385 300 392C250 399 200 427 150 429C100 431 50 407 25 395L0 383Z" fill="#005be1"></path><path d="M0 517L25 519C50 521 100 525 150 520C200 515 250 501 300 499C350 497 400 507 450 505C500 503 550 489 600 484C650 479 700 483 750 495C800 507 850 527 875 537L900 547L900 515L875 503C850 491 800 467 750 449C700 431 650 419 600 420C550 421 500 435 450 444C400 453 350 457 300 467C250 477 200 493 150 492C100 491 50 473 25 464L0 455Z" fill="#0053ce"></path><path d="M0 601L25 601C50 601 100 601 150 601C200 601 250 601 300 601C350 601 400 601 450 601C500 601 550 601 600 601C650 601 700 601 750 601C800 601 850 601 875 601L900 601L900 545L875 535C850 525 800 505 750 493C700 481 650 477 600 482C550 487 500 501 450 503C400 505 350 495 300 497C250 499 200 513 150 518C100 523 50 519 25 517L0 515Z" fill="#004cbb"></path></svg>